# xmcd
#
# Track frame offsets: 
#        150
#        16218
#        33269
#        49510
#        64452
#        78132
#        98355
#        112093
#        128980
#        145877
#        161098
#        178874
#
# Disc length: 2565 seconds
#
# Revision: 1
# Processed by: cddbd v1.5.2PL0 Copyright (c) Steve Scherf et al.
# Submitted via: ExactAudioCopy v0.95b4
#
DISCID=9a0a030c
DTITLE=Bonnie Tyler - Diamond Cut
DYEAR=1979
DGENRE=Pop
TTITLE0=If You Ever Need Me Again
TTITLE1=Too Good To Last
TTITLE2=What A Way To Treat My Heart
TTITLE3=The Eyes Of A Fool
TTITLE4=Bye Bye Now My Sweet Love
TTITLE5=Louisiana Rain
TTITLE6=Baby I Just Love You
TTITLE7=Words Can Change Your Life
TTITLE8=My Guns Are Loaded
TTITLE9=I'm A Fool
TTITLE10=(The World Is Full Of) Married Men (Bonus Track)
TTITLE11=My Guns Are Loaded (Country Single Version) (Bonus Track)
EXTD=YEAR: 1979
EXTT0=
EXTT1=
EXTT2=
EXTT3=
EXTT4=
EXTT5=
EXTT6=
EXTT7=
EXTT8=
EXTT9=
EXTT10=
EXTT11=
PLAYORDER=
